<svg width="30" height="38" viewBox="0 0 30 38" fill="none" xmlns="http://www.w3.org/2000/svg">
<path d="M5.2125 0.5H3.75C2.75544 0.5 1.80161 0.895088 1.09835 1.59835C0.395088 2.30161 0 3.25544 0 4.25V34.25C0 35.2446 0.395088 36.1984 1.09835 36.9016C1.80161 37.6049 2.75544 38 3.75 38H26.25C27.2446 38 28.1984 37.6049 28.9017 36.9016C29.6049 36.1984 30 35.2446 30 34.25V4.25C30 3.25544 29.6049 2.30161 28.9017 1.59835C28.1984 0.895088 27.2446 0.5 26.25 0.5H24.7875C24.925 0.89 25 1.3125 25 1.75V3C25 3.99456 24.6049 4.94839 23.9017 5.65165C23.1984 6.35491 22.2446 6.75 21.25 6.75H8.75C7.75544 6.75 6.80161 6.35491 6.09835 5.65165C5.39509 4.94839 5 3.99456 5 3V1.75C5 1.3125 5.075 0.89 5.2125 0.5ZM20 15.5C20 14.837 20.2634 14.2011 20.7322 13.7322C21.2011 13.2634 21.837 13 22.5 13C23.163 13 23.7989 13.2634 24.2678 13.7322C24.7366 14.2011 25 14.837 25 15.5V28C25 28.663 24.7366 29.2989 24.2678 29.7678C23.7989 30.2366 23.163 30.5 22.5 30.5C21.837 30.5 21.2011 30.2366 20.7322 29.7678C20.2634 29.2989 20 28.663 20 28V15.5ZM5 25.5C5 24.837 5.26339 24.2011 5.73223 23.7322C6.20107 23.2634 6.83696 23 7.5 23C8.16304 23 8.79893 23.2634 9.26777 23.7322C9.73661 24.2011 10 24.837 10 25.5V28C10 28.663 9.73661 29.2989 9.26777 29.7678C8.79893 30.2366 8.16304 30.5 7.5 30.5C6.83696 30.5 6.20107 30.2366 5.73223 29.7678C5.26339 29.2989 5 28.663 5 28V25.5ZM15 18C15.663 18 16.2989 18.2634 16.7678 18.7322C17.2366 19.2011 17.5 19.837 17.5 20.5V28C17.5 28.663 17.2366 29.2989 16.7678 29.7678C16.2989 30.2366 15.663 30.5 15 30.5C14.337 30.5 13.7011 30.2366 13.2322 29.7678C12.7634 29.2989 12.5 28.663 12.5 28V20.5C12.5 19.837 12.7634 19.2011 13.2322 18.7322C13.7011 18.2634 14.337 18 15 18Z" fill="#AEACAC"/>
</svg>
