<svg width="40" height="40" viewBox="0 0 40 40" fill="none" xmlns="http://www.w3.org/2000/svg">
<path d="M20.0004 0L36.5254 7.5H38.7504C39.082 7.5 39.3999 7.6317 39.6343 7.86612C39.8687 8.10054 40.0004 8.41848 40.0004 8.75V13.75C40.0004 14.0815 39.8687 14.3995 39.6343 14.6339C39.3999 14.8683 39.082 15 38.7504 15H37.5004V32.5C37.7796 32.5002 38.0507 32.5939 38.2704 32.766C38.4902 32.9382 38.6459 33.179 38.7129 33.45L39.9629 38.45C40.0095 38.6341 40.0133 38.8265 39.974 39.0123C39.9348 39.1981 39.8535 39.3725 39.7365 39.5221C39.6195 39.6717 39.4698 39.7925 39.2989 39.8754C39.128 39.9582 38.9404 40.0008 38.7504 40H1.25044C1.06052 40.0008 0.872922 39.9582 0.702012 39.8754C0.531102 39.7925 0.381409 39.6717 0.264389 39.5221C0.14737 39.3725 0.0661259 39.1981 0.026876 39.0123C-0.0123738 38.8265 -0.00858911 38.6341 0.0379405 38.45L1.28794 33.45C1.35534 33.1792 1.51123 32.9387 1.73089 32.7666C1.95055 32.5945 2.22139 32.5007 2.50044 32.5V15H1.25044C0.91892 15 0.600977 14.8683 0.366557 14.6339C0.132137 14.3995 0.000440464 14.0815 0.000440464 13.75V8.75C0.000440464 8.41848 0.132137 8.10054 0.366557 7.86612C0.600977 7.6317 0.91892 7.5 1.25044 7.5H3.47544L20.0004 0ZM9.44294 7.5H30.5604L20.0004 2.5L9.44294 7.5ZM5.00044 15V32.5H7.50044V15H5.00044ZM10.0004 15V32.5H16.2504V15H10.0004ZM18.7504 15V32.5H21.2504V15H18.7504ZM23.7504 15V32.5H30.0004V15H23.7504ZM32.5004 15V32.5H35.0004V15H32.5004ZM37.5004 12.5V10H2.50044V12.5H37.5004ZM36.5254 35H3.47544L2.85044 37.5H37.1504L36.5254 35Z" fill="#AEACAC"/>
</svg>
