<svg width="602" height="197" viewBox="0 0 602 197" fill="none" xmlns="http://www.w3.org/2000/svg">
<g filter="url(#filter0_i_52_33)">
<path d="M13.6 70V65.6L21.8 64.1V10.8H7.5L5.4 21.6H0.5V5.2H51.6V21.6H46.7L44.7 10.8H30.4V64.1L38.6 65.6V70H13.6ZM76.8016 70.9C72.0682 70.9 68.4349 69.7333 65.9016 67.4C63.3682 65 62.1016 61.5667 62.1016 57.1V27.6L53.8016 26.2V22.4L67.5016 19.6L70.3016 21V52.8C70.3016 57.1333 71.0682 60.1667 72.6016 61.9C74.1349 63.5667 77.0016 64.4 81.2016 64.4C82.6016 64.4 84.2016 64.1333 86.0016 63.6C87.8682 63 89.5016 62.3 90.9016 61.5V27.6L82.7016 26.2V22.4L96.4016 19.6L99.2016 21V62.9L106.302 64.5V68.3L92.6016 70.3L91.0016 65.3L90.8016 65.4C89.2682 67 87.2016 68.3333 84.6016 69.4C82.0682 70.4 79.4682 70.9 76.8016 70.9ZM129.766 70.9C126.566 70.9 123.532 70.1333 120.666 68.6C117.866 67.0667 115.599 64.6333 113.866 61.3C112.132 57.9 111.266 53.5333 111.266 48.2C111.266 42.8667 111.932 38.3667 113.266 34.7C114.599 31.0333 116.332 28.1 118.466 25.9C120.666 23.7 122.999 22.1 125.466 21.1C127.999 20.1 130.399 19.6 132.666 19.6C135.666 19.6 138.066 20.1333 139.866 21.2C141.666 22.2 142.932 23.0333 143.666 23.7V22.3L143.566 20.8V8L135.266 5.7V1.8L148.966 0.0999939L151.766 1.49999V63L158.766 64.5V68.4L145.466 70.4L144.166 65.2L143.766 65.1C143.232 65.7 142.299 66.4667 140.966 67.4C139.699 68.3333 138.132 69.1667 136.266 69.9C134.399 70.5667 132.232 70.9 129.766 70.9ZM132.666 64.1C134.932 64.1 137.066 63.7667 139.066 63.1C141.066 62.4333 142.566 61.8333 143.566 61.3V27.4C142.699 27.0667 141.399 26.7333 139.666 26.4C137.999 26.0667 136.166 25.9 134.166 25.9C131.432 25.9 128.999 26.4667 126.866 27.6C124.732 28.6667 123.066 30.6 121.866 33.4C120.732 36.1333 120.166 40 120.166 45C120.166 49.2667 120.532 52.8333 121.266 55.7C122.066 58.5 123.366 60.6 125.166 62C127.032 63.4 129.532 64.1 132.666 64.1ZM184.612 70.9C179.945 70.9 176.045 69.9 172.912 67.9C169.778 65.9 167.412 63.0333 165.812 59.3C164.278 55.5667 163.512 51.1333 163.512 46C163.512 42.4 164.012 39.0333 165.012 35.9C166.078 32.7 167.578 29.9 169.512 27.5C171.512 25.0333 173.912 23.1 176.712 21.7C179.578 20.3 182.778 19.6 186.312 19.6C191.112 19.6 195.112 20.6 198.312 22.6C201.512 24.5333 203.878 27.3 205.412 30.9C207.012 34.5 207.812 38.7667 207.812 43.7C207.812 47.5667 207.312 51.1667 206.312 54.5C205.378 57.7667 203.945 60.6333 202.012 63.1C200.078 65.5667 197.645 67.5 194.712 68.9C191.845 70.2333 188.478 70.9 184.612 70.9ZM186.512 65.1C189.712 65.1 192.212 64.3333 194.012 62.8C195.812 61.2 197.078 58.9333 197.812 56C198.545 53.0667 198.912 49.5667 198.912 45.5C198.912 40.8333 198.512 37.0333 197.712 34.1C196.912 31.1 195.578 28.9 193.712 27.5C191.845 26.1 189.212 25.4 185.812 25.4C182.078 25.4 179.245 26.1667 177.312 27.7C175.378 29.1667 174.078 31.4 173.412 34.4C172.812 37.3333 172.512 41.0333 172.512 45.5C172.512 49.6333 172.912 53.1667 173.712 56.1C174.512 59.0333 175.912 61.2667 177.912 62.8C179.978 64.3333 182.845 65.1 186.512 65.1ZM244.819 71.1C234.752 71.1 227.319 68.3 222.519 62.7C217.719 57.1 215.319 49 215.319 38.4C215.319 33.8667 216.019 29.5333 217.419 25.4C218.885 21.2667 220.985 17.6 223.719 14.4C226.452 11.2 229.785 8.66666 233.719 6.8C237.652 4.93333 242.119 4 247.119 4C250.785 4 254.285 4.26666 257.619 4.8C261.019 5.26666 263.852 5.96666 266.119 6.9V22.6H261.119L259.019 11.6C257.419 11.1333 255.419 10.7667 253.019 10.5C250.685 10.1667 248.352 10 246.019 10C241.419 10 237.585 11.0667 234.519 13.2C231.452 15.2667 229.152 18.4 227.619 22.6C226.085 26.8 225.319 32.1 225.319 38.5C225.319 43.1 225.785 47.1 226.719 50.5C227.652 53.9 228.985 56.7333 230.719 59C232.452 61.2 234.585 62.8333 237.119 63.9C239.719 64.9667 242.685 65.5 246.019 65.5C248.685 65.5 250.919 65.3 252.719 64.9C254.585 64.4333 256.052 63.9 257.119 63.3C258.252 62.7 259.085 62.2333 259.619 61.9L261.619 51.6H266.519V66.8C265.252 67.3333 263.685 67.9667 261.819 68.7C259.952 69.3667 257.652 69.9333 254.919 70.4C252.185 70.8667 248.819 71.1 244.819 71.1ZM295.647 70.9C290.98 70.9 287.08 69.9 283.947 67.9C280.814 65.9 278.447 63.0333 276.847 59.3C275.314 55.5667 274.547 51.1333 274.547 46C274.547 42.4 275.047 39.0333 276.047 35.9C277.114 32.7 278.614 29.9 280.547 27.5C282.547 25.0333 284.947 23.1 287.747 21.7C290.614 20.3 293.814 19.6 297.347 19.6C302.147 19.6 306.147 20.6 309.347 22.6C312.547 24.5333 314.914 27.3 316.447 30.9C318.047 34.5 318.847 38.7667 318.847 43.7C318.847 47.5667 318.347 51.1667 317.347 54.5C316.414 57.7667 314.98 60.6333 313.047 63.1C311.114 65.5667 308.68 67.5 305.747 68.9C302.88 70.2333 299.514 70.9 295.647 70.9ZM297.547 65.1C300.747 65.1 303.247 64.3333 305.047 62.8C306.847 61.2 308.114 58.9333 308.847 56C309.58 53.0667 309.947 49.5667 309.947 45.5C309.947 40.8333 309.547 37.0333 308.747 34.1C307.947 31.1 306.614 28.9 304.747 27.5C302.88 26.1 300.247 25.4 296.847 25.4C293.114 25.4 290.28 26.1667 288.347 27.7C286.414 29.1667 285.114 31.4 284.447 34.4C283.847 37.3333 283.547 41.0333 283.547 45.5C283.547 49.6333 283.947 53.1667 284.747 56.1C285.547 59.0333 286.947 61.2667 288.947 62.8C291.014 64.3333 293.88 65.1 297.547 65.1ZM324.354 70V65.9L332.354 64.5V28.9L324.354 27.5V23.4L339.054 20.6L339.954 24.5H340.354C343.087 23.1 345.921 21.9333 348.854 21C351.854 20.0667 354.321 19.6 356.254 19.6C360.521 19.6 363.754 20.8 365.954 23.2C368.221 25.5333 369.354 28.9 369.354 33.3V64.5L377.354 65.9V70H353.354V65.9L361.154 64.5V34.7C361.154 31.7667 360.387 29.7 358.854 28.5C357.321 27.2333 354.587 26.6 350.654 26.6C348.987 26.6 347.154 26.7333 345.154 27C343.221 27.2 341.687 27.4667 340.554 27.8V64.5L348.254 65.9V70H324.354ZM403.271 70.9C399.138 70.9 395.438 70 392.171 68.2C388.971 66.4 386.438 63.7 384.571 60.1C382.771 56.5 381.871 52 381.871 46.6C381.871 43.0667 382.338 39.6667 383.271 36.4C384.271 33.1333 385.704 30.2333 387.571 27.7C389.504 25.1667 391.871 23.2 394.671 21.8C397.538 20.3333 400.804 19.6 404.471 19.6C407.804 19.6 410.604 20.2 412.871 21.4C415.138 22.5333 416.838 24.0667 417.971 26C419.171 27.8667 419.771 29.9 419.771 32.1C419.771 32.9 419.571 33.6667 419.171 34.4C418.771 35.1333 418.204 35.7 417.471 36.1C416.738 36.5 415.838 36.7 414.771 36.7C414.038 36.7 413.404 36.6333 412.871 36.5C412.404 36.3 412.071 36.1333 411.871 36L410.371 26.7C410.104 26.5 409.371 26.2333 408.171 25.9C407.038 25.5667 405.638 25.4 403.971 25.4C400.571 25.4 397.904 26.1333 395.971 27.6C394.104 29 392.771 31.1667 391.971 34.1C391.238 37.0333 390.871 40.8 390.871 45.4C390.871 49.9333 391.438 53.5667 392.571 56.3C393.771 58.9667 395.571 60.9 397.971 62.1C400.371 63.3 403.338 63.9 406.871 63.9C410.004 63.9 412.538 63.6 414.471 63C416.471 62.4 417.638 62 417.971 61.8L419.271 64.8C419.071 65 418.338 65.6 417.071 66.6C415.871 67.6 414.104 68.5667 411.771 69.5C409.504 70.4333 406.671 70.9 403.271 70.9ZM445.552 70.9C440.818 70.9 437.185 69.7333 434.652 67.4C432.118 65 430.852 61.5667 430.852 57.1V27.6L422.552 26.2V22.4L436.252 19.6L439.052 21V52.8C439.052 57.1333 439.818 60.1667 441.352 61.9C442.885 63.5667 445.752 64.4 449.952 64.4C451.352 64.4 452.952 64.1333 454.752 63.6C456.618 63 458.252 62.3 459.652 61.5V27.6L451.452 26.2V22.4L465.152 19.6L467.952 21V62.9L475.052 64.5V68.3L461.352 70.3L459.752 65.3L459.552 65.4C458.018 67 455.952 68.3333 453.352 69.4C450.818 70.4 448.218 70.9 445.552 70.9ZM481.116 70V65.9L487.916 64.5V28.4L480.116 27V22.9L494.516 20.1L496.216 25.7C496.549 25.3667 497.316 24.7333 498.516 23.8C499.782 22.8 501.216 21.8667 502.816 21C504.482 20.0667 506.016 19.6 507.416 19.6C508.816 19.6 509.882 20.0667 510.616 21C511.416 21.8667 511.816 23.0333 511.816 24.5C511.816 25.6333 511.549 26.6333 511.016 27.5C510.549 28.3667 509.816 29.1333 508.816 29.8L504.616 28.7C503.816 28.5 503.116 28.3667 502.516 28.3C501.916 28.1667 501.249 28.1 500.516 28.1C499.782 28.1 499.016 28.1667 498.216 28.3C497.416 28.4333 496.716 28.6333 496.116 28.9V64.4L505.316 65.7V70H481.116ZM533.86 70.9C531.46 70.9 529.16 70.6667 526.96 70.2C524.827 69.7333 522.96 69.2 521.36 68.6C519.76 68 518.66 67.4667 518.06 67L519.16 54.8H523.36L524.76 62.7C525.627 63.3 526.86 63.9 528.46 64.5C530.127 65.1 532.093 65.4 534.36 65.4C538.493 65.4 541.227 64.6 542.56 63C543.96 61.4 544.66 59.3333 544.66 56.8C544.66 54.8 544.127 53.2667 543.06 52.2C541.993 51.0667 540.593 50.2 538.86 49.6C537.127 48.9333 535.293 48.3333 533.36 47.8C531.493 47.3333 529.693 46.8 527.96 46.2C526.227 45.6 524.627 44.8333 523.16 43.9C521.693 42.9 520.527 41.6 519.66 40C518.793 38.3333 518.36 36.2333 518.36 33.7C518.36 30.5 519.16 27.8667 520.76 25.8C522.36 23.7333 524.56 22.2 527.36 21.2C530.16 20.1333 533.227 19.6 536.56 19.6C538.693 19.6 540.727 19.7667 542.66 20.1C544.593 20.3667 546.293 20.7333 547.76 21.2C549.227 21.6 550.26 21.9667 550.86 22.3L549.46 34.8H545.36L543.96 26.8C543.56 26.6 542.527 26.3 540.86 25.9C539.26 25.5 537.56 25.3 535.76 25.3C532.027 25.3 529.427 25.9 527.96 27.1C526.56 28.2333 525.86 30.0667 525.86 32.6C525.86 34.1333 526.327 35.3667 527.26 36.3C528.26 37.2333 529.56 38 531.16 38.6C532.827 39.2 534.627 39.7667 536.56 40.3C538.36 40.8333 540.193 41.4667 542.06 42.2C543.927 42.8667 545.627 43.7333 547.16 44.8C548.76 45.8667 550.027 47.2667 550.96 49C551.893 50.6667 552.36 52.8 552.36 55.4C552.36 59.2667 551.493 62.3333 549.76 64.6C548.027 66.8667 545.727 68.5 542.86 69.5C540.06 70.4333 537.06 70.9 533.86 70.9ZM578.752 70.9C574.086 70.9 570.186 69.9 567.052 67.9C563.919 65.9 561.552 63.0333 559.952 59.3C558.419 55.5667 557.652 51.1333 557.652 46C557.652 42.4 558.152 39.0333 559.152 35.9C560.219 32.7 561.719 29.9 563.652 27.5C565.652 25.0333 568.052 23.1 570.852 21.7C573.719 20.3 576.919 19.6 580.452 19.6C585.252 19.6 589.252 20.6 592.452 22.6C595.652 24.5333 598.019 27.3 599.552 30.9C601.152 34.5 601.952 38.7667 601.952 43.7C601.952 47.5667 601.452 51.1667 600.452 54.5C599.519 57.7667 598.086 60.6333 596.152 63.1C594.219 65.5667 591.786 67.5 588.852 68.9C585.986 70.2333 582.619 70.9 578.752 70.9ZM580.652 65.1C583.852 65.1 586.352 64.3333 588.152 62.8C589.952 61.2 591.219 58.9333 591.952 56C592.686 53.0667 593.052 49.5667 593.052 45.5C593.052 40.8333 592.652 37.0333 591.852 34.1C591.052 31.1 589.719 28.9 587.852 27.5C585.986 26.1 583.352 25.4 579.952 25.4C576.219 25.4 573.386 26.1667 571.452 27.7C569.519 29.1667 568.219 31.4 567.552 34.4C566.952 37.3333 566.652 41.0333 566.652 45.5C566.652 49.6333 567.052 53.1667 567.852 56.1C568.652 59.0333 570.052 61.2667 572.052 62.8C574.119 64.3333 576.986 65.1 580.652 65.1ZM4.5 196V191.8L11.3 190.2V137L5 135.6V131.2H19.6L52.1 180.9L53.6 183.9H54V137L47.2 135.4V131.2H67V135.4L60.3 137V196H52L19.3 146L18 143.3H17.6V190.2L24.6 191.8V196H4.5ZM95.2563 196.9C90.5896 196.9 86.6896 195.9 83.5563 193.9C80.4229 191.9 78.0563 189.033 76.4563 185.3C74.9229 181.567 74.1563 177.133 74.1563 172C74.1563 168.4 74.6563 165.033 75.6563 161.9C76.7229 158.7 78.2229 155.9 80.1563 153.5C82.1563 151.033 84.5563 149.1 87.3563 147.7C90.2229 146.3 93.4229 145.6 96.9563 145.6C101.756 145.6 105.756 146.6 108.956 148.6C112.156 150.533 114.523 153.3 116.056 156.9C117.656 160.5 118.456 164.767 118.456 169.7C118.456 173.567 117.956 177.167 116.956 180.5C116.023 183.767 114.59 186.633 112.656 189.1C110.723 191.567 108.29 193.5 105.356 194.9C102.49 196.233 99.1229 196.9 95.2563 196.9ZM97.1563 191.1C100.356 191.1 102.856 190.333 104.656 188.8C106.456 187.2 107.723 184.933 108.456 182C109.19 179.067 109.556 175.567 109.556 171.5C109.556 166.833 109.156 163.033 108.356 160.1C107.556 157.1 106.223 154.9 104.356 153.5C102.49 152.1 99.8563 151.4 96.4563 151.4C92.7229 151.4 89.8896 152.167 87.9563 153.7C86.0229 155.167 84.7229 157.4 84.0563 160.4C83.4563 163.333 83.1563 167.033 83.1563 171.5C83.1563 175.633 83.5563 179.167 84.3563 182.1C85.1563 185.033 86.5563 187.267 88.5563 188.8C90.6229 190.333 93.4896 191.1 97.1563 191.1ZM141.263 196.4C138.397 196.4 136.163 195.933 134.563 195C133.03 194.067 131.963 192.767 131.363 191.1C130.763 189.367 130.463 187.433 130.463 185.3V151.9H122.663V147.6L130.463 145.5L132.863 135.1H138.663V146.5H152.763V149.3L151.363 151.9H138.663V184.6C138.663 186.667 139.063 188.033 139.863 188.7C140.73 189.3 141.997 189.6 143.663 189.6C145.53 189.6 147.23 189.433 148.763 189.1C150.297 188.7 151.263 188.433 151.663 188.3L152.663 191.5C151.063 192.967 149.197 194.167 147.063 195.1C144.93 195.967 142.997 196.4 141.263 196.4ZM158.729 196V191.9L166.829 190.5V154.9L158.829 153.5V149.4L172.629 146.6L175.029 147.5V190.5L182.829 191.9V196H158.729ZM169.829 139.2C168.162 139.2 166.796 138.633 165.729 137.5C164.729 136.3 164.229 134.8 164.229 133C164.229 131.267 164.796 129.733 165.929 128.4C167.062 127.067 168.529 126.4 170.329 126.4C171.996 126.4 173.329 126.933 174.329 128C175.396 129 175.929 130.467 175.929 132.4C175.929 134.2 175.396 135.8 174.329 137.2C173.262 138.533 171.762 139.2 169.829 139.2ZM209.13 196.9C204.997 196.9 201.297 196 198.03 194.2C194.83 192.4 192.297 189.7 190.43 186.1C188.63 182.5 187.73 178 187.73 172.6C187.73 169.067 188.197 165.667 189.13 162.4C190.13 159.133 191.564 156.233 193.43 153.7C195.364 151.167 197.73 149.2 200.53 147.8C203.397 146.333 206.664 145.6 210.33 145.6C213.664 145.6 216.464 146.2 218.73 147.4C220.997 148.533 222.697 150.067 223.83 152C225.03 153.867 225.63 155.9 225.63 158.1C225.63 158.9 225.43 159.667 225.03 160.4C224.63 161.133 224.064 161.7 223.33 162.1C222.597 162.5 221.697 162.7 220.63 162.7C219.897 162.7 219.264 162.633 218.73 162.5C218.264 162.3 217.93 162.133 217.73 162L216.23 152.7C215.964 152.5 215.23 152.233 214.03 151.9C212.897 151.567 211.497 151.4 209.83 151.4C206.43 151.4 203.764 152.133 201.83 153.6C199.964 155 198.63 157.167 197.83 160.1C197.097 163.033 196.73 166.8 196.73 171.4C196.73 175.933 197.297 179.567 198.43 182.3C199.63 184.967 201.43 186.9 203.83 188.1C206.23 189.3 209.197 189.9 212.73 189.9C215.864 189.9 218.397 189.6 220.33 189C222.33 188.4 223.497 188 223.83 187.8L225.13 190.8C224.93 191 224.197 191.6 222.93 192.6C221.73 193.6 219.964 194.567 217.63 195.5C215.364 196.433 212.53 196.9 209.13 196.9ZM231.776 196V191.9L239.876 190.5V154.9L231.876 153.5V149.4L245.676 146.6L248.076 147.5V190.5L255.876 191.9V196H231.776ZM242.876 139.2C241.209 139.2 239.842 138.633 238.776 137.5C237.776 136.3 237.276 134.8 237.276 133C237.276 131.267 237.842 129.733 238.976 128.4C240.109 127.067 241.576 126.4 243.376 126.4C245.042 126.4 246.376 126.933 247.376 128C248.442 129 248.976 130.467 248.976 132.4C248.976 134.2 248.442 135.8 247.376 137.2C246.309 138.533 244.809 139.2 242.876 139.2ZM275.977 196.7C272.577 196.7 269.844 196.133 267.777 195C265.777 193.867 264.311 192.367 263.377 190.5C262.511 188.567 262.077 186.5 262.077 184.3C262.077 181.5 262.711 179.067 263.977 177C265.311 174.933 267.311 173.233 269.977 171.9C272.644 170.567 275.977 169.667 279.977 169.2L288.977 167.9V160.4C288.977 158.467 288.577 156.867 287.777 155.6C287.044 154.333 285.944 153.433 284.477 152.9C283.077 152.3 281.311 152 279.177 152C277.511 152 276.111 152.133 274.977 152.4C273.844 152.6 273.177 152.733 272.977 152.8L271.477 162C271.411 162.067 271.144 162.2 270.677 162.4C270.211 162.6 269.411 162.7 268.277 162.7C267.144 162.7 266.077 162.3 265.077 161.5C264.144 160.633 263.677 159.5 263.677 158.1C263.677 156.033 264.444 154.2 265.977 152.6C267.577 151 269.511 149.7 271.777 148.7C274.044 147.633 276.311 146.867 278.577 146.4C280.844 145.867 282.677 145.6 284.077 145.6C286.944 145.6 289.344 146.133 291.277 147.2C293.211 148.2 294.677 149.567 295.677 151.3C296.677 153.033 297.177 154.967 297.177 157.1V189.2L304.277 190.6V194.4C304.077 194.467 303.544 194.667 302.677 195C301.877 195.333 300.777 195.667 299.377 196C298.044 196.267 296.477 196.4 294.677 196.4C292.811 196.4 291.511 195.9 290.777 194.9C290.111 193.9 289.711 192.867 289.577 191.8H289.177C288.177 192.6 286.977 193.367 285.577 194.1C284.244 194.833 282.777 195.467 281.177 196C279.577 196.467 277.844 196.7 275.977 196.7ZM279.977 190.4C282.511 190.4 284.644 190.1 286.377 189.5C288.111 188.833 288.977 188.5 288.977 188.5V172.7C284.844 172.967 281.444 173.5 278.777 174.3C276.111 175.1 274.111 176.2 272.777 177.6C271.511 178.933 270.877 180.667 270.877 182.8C270.877 187.867 273.911 190.4 279.977 190.4ZM327.024 196.9C324.624 196.9 322.324 196.667 320.124 196.2C317.991 195.733 316.124 195.2 314.524 194.6C312.924 194 311.824 193.467 311.224 193L312.324 180.8H316.524L317.924 188.7C318.791 189.3 320.024 189.9 321.624 190.5C323.291 191.1 325.258 191.4 327.524 191.4C331.658 191.4 334.391 190.6 335.724 189C337.124 187.4 337.824 185.333 337.824 182.8C337.824 180.8 337.291 179.267 336.224 178.2C335.158 177.067 333.758 176.2 332.024 175.6C330.291 174.933 328.458 174.333 326.524 173.8C324.658 173.333 322.858 172.8 321.124 172.2C319.391 171.6 317.791 170.833 316.324 169.9C314.858 168.9 313.691 167.6 312.824 166C311.958 164.333 311.524 162.233 311.524 159.7C311.524 156.5 312.324 153.867 313.924 151.8C315.524 149.733 317.724 148.2 320.524 147.2C323.324 146.133 326.391 145.6 329.724 145.6C331.858 145.6 333.891 145.767 335.824 146.1C337.758 146.367 339.458 146.733 340.924 147.2C342.391 147.6 343.424 147.967 344.024 148.3L342.624 160.8H338.524L337.124 152.8C336.724 152.6 335.691 152.3 334.024 151.9C332.424 151.5 330.724 151.3 328.924 151.3C325.191 151.3 322.591 151.9 321.124 153.1C319.724 154.233 319.024 156.067 319.024 158.6C319.024 160.133 319.491 161.367 320.424 162.3C321.424 163.233 322.724 164 324.324 164.6C325.991 165.2 327.791 165.767 329.724 166.3C331.524 166.833 333.358 167.467 335.224 168.2C337.091 168.867 338.791 169.733 340.324 170.8C341.924 171.867 343.191 173.267 344.124 175C345.058 176.667 345.524 178.8 345.524 181.4C345.524 185.267 344.658 188.333 342.924 190.6C341.191 192.867 338.891 194.5 336.024 195.5C333.224 196.433 330.224 196.9 327.024 196.9Z" fill="#AEACAC"/>
</g>
<defs>
<filter id="filter0_i_52_33" x="0.5" y="0.0999908" width="601.452" height="197.8" filterUnits="userSpaceOnUse" color-interpolation-filters="sRGB">
<feFlood flood-opacity="0" result="BackgroundImageFix"/>
<feBlend mode="normal" in="SourceGraphic" in2="BackgroundImageFix" result="shape"/>
<feColorMatrix in="SourceAlpha" type="matrix" values="0 0 0 0 0 0 0 0 0 0 0 0 0 0 0 0 0 0 127 0" result="hardAlpha"/>
<feOffset dy="10"/>
<feGaussianBlur stdDeviation="0.5"/>
<feComposite in2="hardAlpha" operator="arithmetic" k2="-1" k3="1"/>
<feColorMatrix type="matrix" values="0 0 0 0 0 0 0 0 0 0 0 0 0 0 0 0 0 0 0.2 0"/>
<feBlend mode="normal" in2="shape" result="effect1_innerShadow_52_33"/>
</filter>
</defs>
</svg>
